<?xml version="1.0" standalone="no"?><!DOCTYPE svg PUBLIC "-//W3C//DTD SVG 1.1//EN" "http://www.w3.org/Graphics/SVG/1.1/DTD/svg11.dtd"><svg t="1642765611466" class="icon" viewBox="0 0 1024 1024" version="1.1" xmlns="http://www.w3.org/2000/svg" p-id="20958" xmlns:xlink="http://www.w3.org/1999/xlink" width="200" height="200"><defs><style type="text/css"></style></defs><path d="M695.7568 323.2256c171.264-218.3168-27.4432-231.3728-73.216-214.528-58.7776-55.04-147.712-52.1728-206.4896 3.9424-277.1456-38.0416-91.4944 210.5856-91.4944 210.5856-261.12 157.184-248.3712 367.3088-237.9264 473.2416S222.208 933.376 222.208 933.376h612.7616c73.5232 0 105.8816-75.4688 115.712-134.2976 37.2736-307.8656-118.9376-379.136-254.9248-475.8528z m8.8576 369.2544c16.9472 0 30.72 13.7728 30.72 30.72s-13.7728 30.72-30.72 30.72h-154.8288v66.6624c0 16.9472-13.7728 30.72-30.72 30.72s-30.72-13.7728-30.72-30.72v-66.6624H333.5168c-16.9472 0-30.72-13.7728-30.72-30.72s13.7728-30.72 30.72-30.72h154.8288v-62.5664H333.5168c-16.9472 0-30.72-13.7728-30.72-30.72s13.7728-30.72 30.72-30.72h127.9488L370.6368 486.656a30.6944 30.6944 0 0 1-2.2528-43.3664 30.6944 30.6944 0 0 1 43.3664-2.2528l107.7248 97.024 109.8752-97.1776c12.6976-11.264 32.1024-10.0352 43.3664 2.6624 11.264 12.6976 10.0352 32.1024-2.6624 43.3664l-92.2624 81.6128h126.8224c16.9472 0 30.72 13.7728 30.72 30.72s-13.7728 30.72-30.72 30.72h-154.8288v62.5664h154.8288z" fill="#ee6c4b" p-id="20959" data-spm-anchor-id="a313x.7781069.0.i0" class="selected"></path></svg>