<?xml version="1.0" standalone="no"?><!DOCTYPE svg PUBLIC "-//W3C//DTD SVG 1.1//EN" "http://www.w3.org/Graphics/SVG/1.1/DTD/svg11.dtd"><svg t="1642851683745" class="icon" viewBox="0 0 1024 1024" version="1.1" xmlns="http://www.w3.org/2000/svg" p-id="2136" xmlns:xlink="http://www.w3.org/1999/xlink" width="200" height="200"><defs><style type="text/css"></style></defs><path d="M1011.2 646.4v32c0 12.8-6.4 25.6-12.8 38.4-6.4 12.8-12.8 25.6-19.2 32-6.4 12.8-12.8 19.2-25.6 19.2-6.4 6.4-19.2 6.4-25.6 6.4-6.4 0-12.8 0-19.2-6.4-6.4 0-19.2-6.4-25.6-6.4h-32c-12.8 0-19.2 6.4-32 6.4-12.8 6.4-19.2 12.8-25.6 19.2-19.2 19.2-25.6 38.4-32 64 0 25.6 0 44.8 12.8 64 6.4 12.8 6.4 25.6-6.4 44.8l-19.2 19.2c-6.4 6.4-19.2 12.8-32 19.2-12.8 6.4-25.6 6.4-32 12.8-12.8 0-25.6 6.4-32 6.4-6.4 0-12.8 0-19.2-6.4-6.4-6.4-12.8-12.8-12.8-19.2-6.4-19.2-19.2-38.4-38.4-57.6-19.2-19.2-38.4-25.6-64-25.6s-44.8 6.4-64 25.6c-19.2 19.2-32 32-38.4 57.6-6.4 6.4-6.4 12.8-19.2 19.2-6.4 6.4-12.8 6.4-25.6 6.4s-19.2 0-32-6.4-25.6-6.4-38.4-12.8c-12.8-6.4-25.6-12.8-32-19.2-12.8-6.4-19.2-12.8-25.6-19.2-6.4-6.4-6.4-12.8-6.4-19.2 0-6.4 0-19.2 6.4-25.6 6.4-19.2 12.8-38.4 6.4-57.6 0-19.2-12.8-38.4-25.6-57.6-12.8-12.8-19.2-19.2-38.4-19.2-19.2-12.8-32-12.8-44.8-12.8-12.8 0-32 6.4-44.8 6.4H64c-6.4 0-12.8-6.4-19.2-19.2-6.4-12.8-12.8-19.2-19.2-32-6.4-12.8-6.4-25.6-12.8-38.4 0-12.8-6.4-25.6 0-32 0-12.8 6.4-25.6 19.2-32 19.2-12.8 38.4-25.6 57.6-44.8 19.2-19.2 25.6-44.8 25.6-64 0-25.6-6.4-44.8-25.6-64-19.2-25.6-38.4-38.4-57.6-44.8-6.4 0-12.8-6.4-12.8-12.8-6.4-12.8-12.8-19.2-12.8-25.6 0-6.4 0-19.2 6.4-32 0-12.8 6.4-25.6 12.8-32 6.4-12.8 12.8-19.2 19.2-32 0-12.8 6.4-19.2 12.8-19.2 6.4-6.4 12.8-6.4 19.2-6.4 6.4 0 12.8 0 19.2 6.4 19.2 6.4 44.8 12.8 64 6.4 25.6-6.4 44.8-12.8 64-32 6.4-6.4 12.8-19.2 19.2-32 6.4-12.8 6.4-25.6 6.4-38.4v-32-19.2c0-6.4 0-6.4-6.4-12.8v-12.8c6.4-12.8 12.8-25.6 25.6-32l38.4-19.2c12.8-6.4 25.6-6.4 38.4-12.8 12.8 0 19.2-6.4 32-6.4 6.4 0 19.2 0 19.2 6.4 6.4 6.4 6.4 12.8 12.8 19.2 6.4 19.2 19.2 38.4 38.4 51.2 19.2 12.8 38.4 19.2 64 19.2s44.8-6.4 64-19.2c19.2-12.8 32-32 38.4-51.2 0-6.4 6.4-12.8 12.8-19.2 6.4-6.4 12.8-6.4 19.2-6.4 12.8 0 19.2 0 32 6.4 12.8 0 25.6 6.4 32 12.8 12.8 6.4 19.2 12.8 32 19.2 12.8 6.4 25.6 19.2 25.6 25.6 6.4 6.4 6.4 12.8 6.4 19.2 0 6.4 0 12.8-6.4 12.8-6.4 19.2-12.8 44.8-6.4 64 6.4 25.6 12.8 44.8 32 57.6 19.2 19.2 38.4 25.6 64 25.6s51.2 0 70.4-12.8c6.4-6.4 12.8-6.4 19.2-6.4 6.4 0 12.8 6.4 19.2 12.8 12.8 12.8 19.2 25.6 25.6 44.8 6.4 19.2 12.8 38.4 19.2 64 0 12.8 0 19.2-6.4 25.6-6.4 6.4-12.8 12.8-19.2 12.8-19.2 6.4-38.4 19.2-57.6 38.4-12.8 19.2-25.6 44.8-25.6 70.4 0 25.6 6.4 44.8 19.2 64 12.8 19.2 32 32 51.2 38.4 6.4 0 6.4 6.4 12.8 6.4 19.2 25.6 19.2 32 25.6 38.4M512 748.8c32 0 64-6.4 89.6-19.2 25.6-12.8 51.2-32 76.8-51.2 19.2-19.2 38.4-44.8 51.2-76.8 6.4-25.6 12.8-57.6 12.8-89.6 0-32-6.4-64-19.2-89.6-12.8-25.6-32-51.2-51.2-76.8-19.2-19.2-44.8-38.4-76.8-51.2-19.2-12.8-51.2-19.2-83.2-19.2s-64 6.4-96 19.2c-25.6 12.8-51.2 32-70.4 51.2-19.2 19.2-38.4 44.8-51.2 76.8-12.8 25.6-19.2 57.6-19.2 89.6s6.4 64 19.2 89.6c12.8 25.6 32 51.2 51.2 76.8 19.2 19.2 44.8 38.4 76.8 51.2 25.6 12.8 57.6 19.2 89.6 19.2m0 0z" fill="#ffffff" p-id="2137"></path></svg>